<svg width="46" height="46" viewBox="0 0 46 46" fill="none" xmlns="http://www.w3.org/2000/svg">
<rect width="46" height="46" rx="8" fill="white"/>
<path opacity="0.5" fill-rule="evenodd" clip-rule="evenodd" d="M24.6364 18.0009C24.6364 19.3785 23.5358 20.5 22.1808 20.5C20.8269 20.5 19.727 19.3783 19.7273 18.0009C19.7273 16.6195 20.8269 15.5 22.1808 15.5C23.5358 15.5 24.6364 16.6195 24.6364 18.0009ZM25.966 23.6949C26.7091 22.7311 27.8614 22.7742 28.5292 23.7972L31.6943 28.6468C32.3603 29.6657 31.9013 30.5 30.674 30.5H15.2619C14.034 30.5 13.6319 29.7085 14.3693 28.737L17.1215 25.1167C17.8577 24.145 19.0658 24.145 19.8038 25.1121L20.9805 26.6485C21.7198 27.6141 22.934 27.6182 23.6805 26.6529L25.966 23.6949Z" fill="#B1B8C5"/>
</svg>
