<svg width="15" height="15" viewBox="0 0 15 15" fill="none" xmlns="http://www.w3.org/2000/svg">
<mask id="mask0_1845_14392" style="mask-type:luminance" maskUnits="userSpaceOnUse" x="0" y="0" width="15" height="15">
<path fill-rule="evenodd" clip-rule="evenodd" d="M13.5645 14.1445C13.4941 14.2148 13.415 14.25 13.3271 14.25C13.2393 14.25 13.1689 14.2148 13.1162 14.1445L9.89941 10.9541C9.84668 10.8838 9.82031 10.8135 9.82031 10.7432V10.374C9.32812 10.7959 8.77441 11.1255 8.15918 11.3628C7.54395 11.6001 6.90234 11.7188 6.23438 11.7188C5.23242 11.7188 4.31397 11.4727 3.479 10.9805C2.64404 10.4883 1.98047 9.82471 1.48828 8.98975C0.996094 8.15479 0.75 7.23633 0.75 6.23438C0.75 5.23242 0.996094 4.31397 1.48828 3.479C1.98047 2.64404 2.64404 1.98047 3.479 1.48828C4.31397 0.996094 5.23242 0.75 6.23438 0.75C7.23633 0.75 8.15479 0.996094 8.98975 1.48828C9.82471 1.98047 10.4883 2.64404 10.9805 3.479C11.4727 4.31397 11.7188 5.23242 11.7188 6.23438C11.7188 6.90234 11.6001 7.54395 11.3628 8.15918C11.1255 8.77441 10.7959 9.32812 10.374 9.82031H10.7432C10.8311 9.82031 10.9014 9.84668 10.9541 9.89941L14.1709 13.1162C14.2236 13.1689 14.25 13.2393 14.25 13.3271C14.25 13.415 14.2236 13.4941 14.1709 13.5645L13.5645 14.1445ZM4.125 9.88623C4.77539 10.2642 5.47852 10.4531 6.23438 10.4531C6.99023 10.4531 7.69336 10.2642 8.34375 9.88623C8.99414 9.5083 9.5083 8.99414 9.88623 8.34375C10.2642 7.69336 10.4531 6.99023 10.4531 6.23438C10.4531 5.47852 10.2642 4.77539 9.88623 4.125C9.5083 3.47461 8.99414 2.96045 8.34375 2.58252C7.69336 2.20459 6.99023 2.01562 6.23438 2.01562C5.47852 2.01562 4.77539 2.20459 4.125 2.58252C3.47461 2.96045 2.96045 3.47461 2.58252 4.125C2.20459 4.77539 2.01562 5.47852 2.01562 6.23438C2.01562 6.99023 2.20459 7.69336 2.58252 8.34375C2.96045 8.99414 3.47461 9.5083 4.125 9.88623Z" fill="white"/>
</mask>
<g mask="url(#mask0_1845_14392)">
<rect width="15" height="15" fill="#484848"/>
</g>
</svg>
