<svg width="240" height="240" viewBox="0 0 240 240" fill="none" xmlns="http://www.w3.org/2000/svg">
<g id="icon">
<circle id="Oval" cx="120" cy="120" r="120" fill="#F7F8F9"/>
<g id="img_icon">
<path id="Fill 1" fill-rule="evenodd" clip-rule="evenodd" d="M151.974 122.12C147.967 115.85 141.054 115.587 136.595 121.493L122.882 139.621C118.403 145.537 111.117 145.512 106.682 139.595L99.6216 130.179C95.1936 124.252 87.9453 124.252 83.5281 130.207L67.0149 152.394C62.59 158.348 65.003 163.199 72.3701 163.199H164.843C172.207 163.199 174.961 158.086 170.965 151.842L151.974 122.12Z" fill="#999999"/>
<path id="Fill 4" fill-rule="evenodd" clip-rule="evenodd" d="M112.381 107.65C120.813 107.65 127.662 100.73 127.662 92.2299C127.662 83.7061 120.813 76.7988 112.381 76.7988C103.956 76.7988 97.1133 83.7061 97.1133 92.2299C97.1117 100.728 103.956 107.65 112.381 107.65Z" fill="#999999"/>
</g>
</g>
</svg>
