<svg width="80" height="80" viewBox="0 0 80 80" xmlns="http://www.w3.org/2000/svg" xmlns:xlink="http://www.w3.org/1999/xlink">
    <defs>
        <path id="a" d="M.125.245H24.3v34.04H.125z"/>
        <path id="c" d="M.125.245h24.113v34.04H.125z"/>
        <path d="M.58 22.447C.525 34.496 10.247 44.31 22.296 44.366c12.049.057 21.862-9.664 21.92-21.713C44.27 10.603 34.549.79 22.5.734h-.105C10.394.734.637 10.433.58 22.447z" id="e"/>
    </defs>
    <g fill="none" fill-rule="evenodd">
        <path d="M0 0h80v80H0z"/>
        <circle fill="#D1D8DB" opacity=".2" cx="40" cy="40" r="35"/>
        <g transform="translate(42.77 45.562)">
            <mask id="b" fill="#fff">
                <use xlink:href="#a"/>
            </mask>
            <path d="M24.074 29.65 6.777.245c-.088.127-.175.256-.271.38-.988 1.266-2.44 1.992-3.976 2.21a6.303 6.303 0 0 1-2.405.991l17.443 29.652a1.647 1.647 0 0 0 2.247.583l3.677-2.164a1.646 1.646 0 0 0 .582-2.247" fill="#B2BEC4" mask="url(#b)"/>
        </g>
        <g transform="translate(42.77 45.562)">
            <mask id="d" fill="#fff">
                <use xlink:href="#c"/>
            </mask>
            <path d="M16.847 28.214c-2.51-3.542-8.151-12.95-8.988-15.78-.868-2.936.937-3.562 2.985-5.274L6.777.245c-.088.127-.175.257-.271.38-.988 1.266-2.44 1.992-3.977 2.21a6.33 6.33 0 0 1-2.404.991l17.443 29.651a1.645 1.645 0 0 0 2.247.583l3.677-2.163c.38-.224.636-.581.746-.978-5 1.306-4.64 1.178-7.391-2.705" fill="#667C88" mask="url(#d)"/>
        </g>
        <path d="M54 40.797c-.44 1.486-1.36 2.842-2.63 3.73-4.354 3.04-9.222 5.308-14.555 4.32a9.546 9.546 0 0 0 15.399 1.226A9.54 9.54 0 0 0 54 40.796" fill="#4F98D2"/>
        <path d="M54.043 40.866c-.44 1.486-1.359 2.842-2.63 3.729-4.354 3.04-9.222 5.309-14.555 4.32a9.562 9.562 0 0 0 1.938 2.273c4.006 3.428 10.033 2.96 13.46-1.046a9.541 9.541 0 0 0 1.787-9.276" fill="#B2BEC4"/>
        <path d="M36.932 47.73c-12.049-.056-21.77-9.87-21.714-21.919.057-12.05 9.87-21.77 21.92-21.713 12.048.057 21.77 9.87 21.714 21.919-.058 12.048-9.87 21.77-21.92 21.714m25.137-21.7C62.134 12.207 50.98.945 37.152.88 23.326.814 12.066 11.969 12 25.796c-.065 13.826 11.09 25.088 24.917 25.153 13.826.064 25.088-11.091 25.152-24.917" fill="#667C88"/>
        <path d="M37.138 4.098c-12.05-.056-21.863 9.664-21.92 21.713-.057 12.049 9.666 21.862 21.715 21.92 12.048.056 21.862-9.666 21.918-21.714.057-12.05-9.664-21.863-21.713-21.92" fill="#B2BEC4"/>
        <g transform="translate(14.637 3.364)">
            <mask id="f" fill="#fff">
                <use xlink:href="#e"/>
            </mask>
            <path fill="#EBEFF1" mask="url(#f)" d="M42.07 4.458 11.116 45.999 2.37 39.483 33.327-2.058z"/>
        </g>
    </g>
</svg>
