<svg width="48" height="48" viewBox="0 0 48 48" fill="none" xmlns="http://www.w3.org/2000/svg">
<path opacity="0.2" fill-rule="evenodd" clip-rule="evenodd" d="M45.75 24.6172C45.75 36.7672 35.9 46.6172 23.75 46.6172C11.5996 46.6172 1.75 36.7672 1.75 24.6172C1.75 12.4668 11.5996 2.61719 23.75 2.61719C35.9 2.61719 45.75 12.4668 45.75 24.6172Z" fill="#D3DAE1"/>
<path fill-rule="evenodd" clip-rule="evenodd" d="M47.8788 23.6603C47.8788 18.8167 44.05 14.86 39.23 14.6042C38.2916 10.1763 34.332 6.85156 29.5876 6.85156C27.5356 6.85156 25.63 7.47437 24.052 8.5391C22.7932 7.77467 21.3184 7.32601 19.7344 7.32601C15.1568 7.32601 11.446 11.0061 11.446 15.5455C11.446 15.8153 11.4612 16.0814 11.4868 16.3445C11.2668 16.327 11.0456 16.3111 10.8208 16.3111C6.2436 16.3111 2.5332 19.9909 2.5332 24.5302C2.5332 29.07 6.2436 32.7501 10.8208 32.7501C10.954 32.7501 11.084 32.7363 11.2156 32.7303H39.5908V32.6894C44.2392 32.2602 47.8788 28.3825 47.8788 23.6603Z" fill="#D3DAE1"/>
<path fill-rule="evenodd" clip-rule="evenodd" d="M2.5336 24.5269C2.5336 19.9876 6.244 16.3074 10.8216 16.3074C11.046 16.3074 11.2672 16.3233 11.4872 16.3407C11.4616 16.0777 11.4464 15.8116 11.4464 15.5422C11.4464 11.0024 15.1576 7.3223 19.7348 7.3223C20.6248 7.3223 21.478 7.46868 22.28 7.72812C20.878 6.64277 19.1184 5.99219 17.2012 5.99219C12.624 5.99219 8.9132 9.67232 8.9132 14.2121C8.9132 14.4814 8.928 14.7476 8.954 15.0106C8.7336 14.9932 8.5128 14.9773 8.288 14.9773C3.7104 14.9773 0 18.6574 0 23.1968C0 26.8599 2.4172 29.9601 5.7552 31.022C3.7984 29.5185 2.5336 27.1717 2.5336 24.5269Z" fill="#B1B8C5"/>
<path fill-rule="evenodd" clip-rule="evenodd" d="M22.7661 24.4805L14.3281 33.0054H18.2181V42.8764H27.3145V33.0054H31.2041L22.7661 24.4805Z" fill="#777E87"/>
</svg>
