<svg width="14" height="12" viewBox="0 0 14 12" fill="none" xmlns="http://www.w3.org/2000/svg">
<path fill-rule="evenodd" clip-rule="evenodd" d="M6.5 7.66667H7.5V3.33333H6.5V7.66667ZM6.49067 10.01H7.49067V8.67667H6.49067V10.01ZM7 0C6.48867 0 5.97733 0.254 5.68533 0.762667L0.539334 9.71333C-0.0453324 10.7293 0.684667 12 1.85333 12H12.1467C13.3153 12 14.0453 10.7293 13.4607 9.71333L8.31467 0.762667C8.02267 0.254 7.51133 0 7 0ZM7 1C7.09 1 7.31267 1.02533 7.448 1.26067L12.594 10.2113C12.7313 10.4507 12.6393 10.6613 12.5933 10.7407C12.548 10.8187 12.414 11 12.1467 11H1.85333C1.586 11 1.452 10.8187 1.40667 10.7407C1.36067 10.6613 1.26867 10.4507 1.40533 10.2113L6.552 1.26067C6.68733 1.02533 6.91 1 7 1Z" fill="#ED5347"/>
</svg>
