<svg width="16" height="18" viewBox="0 0 16 18" fill="none" xmlns="http://www.w3.org/2000/svg">
<path fill-rule="evenodd" clip-rule="evenodd" d="M2.5 16.5789H13.5V4.26316H2.5V16.5789ZM5.64616 1.42105H10.3542L10.8822 2.84211H5.11816L5.64616 1.42105ZM16 2.84211H12.472L11.679 0.706737C11.467 0.273789 11.034 0 10.561 0H5.439C4.966 0 4.533 0.273789 4.321 0.706737L3.528 2.84211H0V4.26316H1V16.5789C1 17.3634 1.672 18 2.5 18H13.5C14.328 18 15 17.3634 15 16.5789V4.26316H16V2.84211Z" fill="#3D525D"/>
<path fill-rule="evenodd" clip-rule="evenodd" d="M6.66602 5.68359L5.16602 5.68549V15.157H6.66602V5.68359Z" fill="#3D525D"/>
<path fill-rule="evenodd" clip-rule="evenodd" d="M9.33203 15.157H10.832V5.68359H9.33203V15.157Z" fill="#3D525D"/>
</svg>
