<svg width="55" height="55" viewBox="0 0 55 55" xmlns="http://www.w3.org/2000/svg" xmlns:xlink="http://www.w3.org/1999/xlink">
    <defs>
        <path id="a" d="M0 0h7.62v1.658H0z"/>
        <path id="c" d="M0 0h27.467v31.978H0z"/>
    </defs>
    <g fill="none" fill-rule="evenodd">
        <circle fill-opacity=".25" fill="#EBEFF1" fill-rule="nonzero" cx="27.5" cy="27.5" r="27.5"/>
        <path d="M20.232 35.238c1-.52 2.059-.946 3.242-1.172.21.063.368.164.432.337.254.757.385 1.531.534 2.303.1.52-.08.659-.759.66-.953.002-1.907.008-2.86-.003a.1.1 0 0 1-.053-.046l-.536-2.08M31.979 33.948c1.09.407 2.258.695 3.234 1.274l-.535 2.094a.096.096 0 0 1-.05.047c-.994.01-1.988-.003-2.982.007-.338.003-.646-.069-.596-.356.17-.996.238-2.009.73-2.957a.4.4 0 0 1 .199-.109M24.445 33.686l.01-.122c.866-.555 1.838-.541 2.842-.35.35.144.325.42.33.67.016.806.046 1.612-.054 2.447.084-.244.169-.44.529-.322.321.401.244.816.067 1.235a.685.685 0 0 1-.16.155l-.86.006c-.517-.069-1.039-.018-1.558-.03-.372-.007-.673-.081-.757-.421a29.712 29.712 0 0 1-.565-2.762c-.028-.186-.016-.368.176-.506" fill="#94A4AD" opacity=".3"/>
        <path d="M28.016 33.297c1.038.043 2.05.337 3.106.19l.004.221c-.37.936-.486 1.912-.661 2.876-.102.559-.366.801-1.09.738-.448-.04-.907.003-1.36.01l-.025-1.345c-.138-.073-.247-.166-.263-.3a7.791 7.791 0 0 1 .008-2.107c.02-.134.124-.229.281-.283" fill="#94A4AD" opacity=".3"/>
        <path d="M23.914 48.768c-1.893-.065-3.093-.842-3.568-2.318-.247-.77-.137-1.56-.117-2.344.221-.288.539-.304.861-.309.795-.012 1.59 0 2.384-.009.204-.002.41.004.608-.059.183-.058.345-.155.347-.368.002-.215-.16-.31-.346-.365-.2-.058-.405-.05-.609-.051-.794-.008-1.59.004-2.384-.009-.322-.005-.64-.02-.86-.308l.004-2.438c.234-.368.613-.345.973-.348 1.746-.016 3.491.005 5.237-.014.336-.004.886.122.893-.341.006-.475-.546-.35-.88-.353-1.722-.02-3.445 0-5.168-.014-.38-.003-.785.044-1.059-.322-.01-.31 0-.622-.034-.929-.05-.448.164-.598.573-.569l.119-.031c2.091-.068 4.182-.208 6.274-.039h.878c2.172-.126 4.343-.053 6.514.038l.124.032c.155.042.356-.022.442.186.08.971.01 1.944.036 2.915.014.504-.314.598-.71.614-1.018.041-2.036.009-3.054.022-.249.003-.5-.015-.74.07-.159.054-.291.146-.296.33-.005.181.12.283.274.349.214.092.442.089.668.091.95.01 1.901-.01 2.852.011.937.021 1.018.095 1 1.008-.012.56.089 1.127-.064 1.683-.23.208-.515.147-.781.148-1.273.008-2.546.019-3.817-.001-1.162-.018-2.316.013-3.453.256-.173.041-.374.077-.37.305.005.226.21.254.387.289 2.361.457 4.745.161 7.116.247.309.012.644-.075.896.199-.386 1.758-1.565 2.675-3.531 2.746-.226.278-.544.3-.863.302-1.965.02-3.93.02-5.894 0-.319-.003-.637-.024-.862-.302" fill="#B2BEC4"/>
        <g transform="translate(23.914 48.768)">
            <mask id="b" fill="#fff">
                <use xlink:href="#a"/>
            </mask>
            <path d="M0 0h7.62c-.019.556-.368.877-.83 1.062-1.983.795-3.978.795-5.961 0C.367.877.017.556 0 0" fill="#94A4AD" mask="url(#b)"/>
        </g>
        <path d="M20.23 38.798h6.818c.344 0 .697-.015.887.36.255.505-.057 1-.68 1.012-1.249.023-2.499.008-3.749.01-1.09.002-2.181.006-3.272.01l-.004-1.392M20.23 42.628c1.242 0 2.484.003 3.727-.005.527-.003 1.004.123 1.008.735.004.62-.5.743-1.008.746-1.243.008-2.485.002-3.728.002v-1.478zM35.168 44.608c-.026-2.374.081-4.749-.049-7.123-.009.588-.02 1.176-.026 1.764-.02 1.658.194 1.442-1.437 1.457-1.041.01-2.083-.004-3.124.014-.425.007-.754.18-.769.676-.014.474.258.705.692.77.222.033.45.031.677.032 1.11.003 2.219.015 3.328-.004.47-.007.66.176.635.642-.029.564-.029 1.13-.041 1.696-2.52 0-5.042 0-7.562.004-.291 0-.595-.055-.861.126-.563.428-.565.791-.007 1.23a.365.365 0 0 0 .056.03c.251.136.53.093.8.094 2.528.005 5.056.005 7.584.006a.169.169 0 0 0 .014-.132c.137-.42.095-.854.09-1.282" fill="#94A4AD"/>
        <g transform="translate(14 3.705)">
            <mask id="d" fill="#fff">
                <use xlink:href="#c"/>
            </mask>
            <path d="M6.231 31.895c-1.05-4.16-2.658-8.1-4.585-11.932-2.466-4.905-2.176-9.744.97-14.248C5.21 2.001 8.9.028 13.451 0c5.862-.036 10.151 2.696 12.674 7.95 1.808 3.766 1.792 7.706-.062 11.46-1.99 4.029-3.758 8.12-4.85 12.486-.226.144-.447.068-.64-.05-.696-.428-1.444-.742-2.193-1.061a1.125 1.125 0 0 1-.579-.547c-.081-.41.004-.81.067-1.214.6-3.808 1.243-7.609 1.873-11.412.025-.152.098-.307-.054-.539a19.611 19.611 0 0 0-1.81 1.992c-.688.88-1.441 1.406-2.64 1.304-1.262-.108-2.54-.019-3.81-.029-.437-.003-.797-.128-1.081-.467-.83-.99-1.72-1.927-2.667-2.982.146 1.248.37 2.38.559 3.515.496 2.997.966 6 1.472 8.995.059.35.044.674-.068 1.002-.907.664-2.022.923-2.963 1.523-.141.09-.303.055-.448-.031" fill="#EBEFF1" mask="url(#d)"/>
        </g>
        <path d="M27.289 33.434c-.964-.148-1.887.18-2.834.242-.592-3.578-1.186-7.156-1.797-10.84.569.301.874.717 1.174 1.118.399.532.86.772 1.557.747a78.495 78.495 0 0 1 4.77-.004c.604.016 1.034-.155 1.402-.627a6.678 6.678 0 0 1 1.286-1.25c-.273 1.666-.549 3.333-.817 5-.306 1.904-.606 3.81-.908 5.715-.142.25-.344.44-.641.401-.71-.092-1.418-.187-2.13-.262-.207-.022-.36-.172-.51-.305-.201-.279-.162-.606-.164-.918a246.863 246.863 0 0 1-.002-4.759c.011-1.133.14-1.256 1.246-1.286.18-.005.359-.002.538-.018-1.245-.018-2.49-.014-3.735-.011.001.02.032.023.092.023 1.821.022 1.823.022 1.824 1.873 0 1.428.017 2.856-.012 4.283-.006.32.082.706-.34.878" fill="#EBEFF1"/>
        <path d="M32.058 37.326c-.594.017-.787-.12-.68-.726.202-1.133.511-2.253.535-3.411a.608.608 0 0 1 .066-.017l2.328-13.303c-.366.008-.443.188-.558.307a279.03 279.03 0 0 0-2.78 2.917c-.275.293-.573.44-1.001.433-1.498-.02-2.997-.011-4.495-.004-.336.002-.61-.065-.845-.32-.847-.924-1.71-1.835-2.57-2.748-.236-.25-.48-.49-.808-.823-.018.223-.041.303-.028.378.508 2.92 1.032 5.84 1.524 8.763.253 1.502.616 2.988.728 4.51l.152.418c.162.948.3 1.901.496 2.844.116.556-.022.795-.66.78-.88-.02-1.761.024-2.642.04 2.108.14 4.22.023 6.33.043-.39-.166-.805-.094-1.207-.083-.514.014-.768-.13-.845-.665-.169-1.17-.415-2.332-.633-3.497.047-.035.093-.07.14-.103a.872.872 0 0 0 .055-.19c.073-.933-.22-1.825-.368-2.731-.355-2.18-.731-4.357-1.121-6.549.235.025.289.184.375.297.46.605 1.05.87 1.863.842 1.315-.047 2.64-.087 3.95.008 1.301.095 2.32-.21 3.048-1.465a718.86 718.86 0 0 0-1.518 8.737c-.047.278-.093.552.012.826.025.077.045.156.084.229-.381.091-.343.474-.404.741-.17.755-.271 1.525-.422 2.285-.16.801-.254.873-1.108.913-.377.018-.792-.056-1.036.335l-.006.063c2.206.023 4.413.092 6.619-.035-.856-.017-1.714-.063-2.57-.039" fill="#94A4AD"/>
        <path d="m27.99 35.78.026-3.089c-.006-1.807-.005-3.614-.025-5.421-.004-.42.158-.614.633-.597.52.02 1.043.007 1.564 0 .227-.004.496-.002.487-.3-.007-.232-.22-.308-.436-.308a978.131 978.131 0 0 0-5.305 0c-.217 0-.43.078-.435.308-.008.298.262.296.488.3.544.007 1.089.02 1.632 0 .476-.018.708.12.701.598-.025 1.849-.023 3.698-.031 5.546-.004 1.243-.018 2.486-.003 3.729.004.254-.174.686.286.703.491.018.279-.423.318-.674.04-.264-.036-.54.1-.795" fill="#94A4AD"/>
    </g>
</svg>
