<svg
  width="16"
  height="19"
  viewBox="0 0 16 19"
  fill="none"
  xmlns="http://www.w3.org/2000/svg"
>
  <path
    fill-rule="evenodd"
    clip-rule="evenodd"
    d="M2.5 17.0789H13.5V4.76316H2.5V17.0789ZM5.64616 1.92105H10.3542L10.8822 3.34211H5.11816L5.64616 1.92105ZM16 3.34211H12.472L11.679 1.20674C11.467 0.773789 11.034 0.5 10.561 0.5H5.439C4.966 0.5 4.533 0.773789 4.321 1.20674L3.528 3.34211H0V4.76316H1V4.76316V17.0789C1 17.8634 1.672 18.5 2.5 18.5H13.5C14.328 18.5 15 17.8634 15 17.0789V4.76316V4.76316H16V3.34211Z"
    fill="#3D525D"
  />
  <path
    fill-rule="evenodd"
    clip-rule="evenodd"
    d="M6.66602 6.18414L5.16602 6.18604V15.6575H6.66602V6.18414Z"
    fill="#3D525D"
  />
  <path
    fill-rule="evenodd"
    clip-rule="evenodd"
    d="M9.33203 15.6573H10.832V6.18387H9.33203V15.6573Z"
    fill="#3D525D"
  />
</svg>
