<svg width="80" height="80" viewBox="0 0 80 80" xmlns="http://www.w3.org/2000/svg" xmlns:xlink="http://www.w3.org/1999/xlink">
    <defs>
        <path id="a" d="M.582.44h33.365v33.366H.582z"/>
        <path id="c" d="M0 77.608h79.042V.867H0z"/>
    </defs>
    <g fill="none" fill-rule="evenodd">
        <path d="M0 0h80v80H0z"/>
        <circle fill="#D1D8DB" opacity=".2" cx="40" cy="40" r="35"/>
        <g transform="translate(0 1)">
            <g transform="translate(45.095 .426)">
                <mask id="b" fill="#fff">
                    <use xlink:href="#a"/>
                </mask>
                <path d="M17.265.44c9.214 0 16.682 7.47 16.682 16.683 0 9.214-7.468 16.683-16.682 16.683-9.213 0-16.683-7.47-16.683-16.683C.582 7.91 8.052.441 17.265.441" fill="#B2BEC4" mask="url(#b)"/>
            </g>
            <path d="M62.36 3.65c7.676 0 13.9 6.223 13.9 13.9 0 7.676-6.224 13.9-13.9 13.9-7.677 0-13.9-6.224-13.9-13.9 0-7.677 6.223-13.9 13.9-13.9" fill="#EBEFF1"/>
            <path d="M62.993 16.678h-2.036a1.728 1.728 0 0 1 0-3.454h2.036c.952 0 1.726.775 1.726 1.728a.7.7 0 0 0 1.4 0 3.13 3.13 0 0 0-3.126-3.127h-.318V10.28a.7.7 0 0 0-1.399 0v1.545h-.319a3.13 3.13 0 0 0-3.125 3.127 3.13 3.13 0 0 0 3.125 3.125h2.036c.952 0 1.726.775 1.726 1.726a1.73 1.73 0 0 1-1.726 1.728h-2.036a1.728 1.728 0 0 1-1.725-1.728.701.701 0 0 0-1.4 0 3.13 3.13 0 0 0 3.125 3.126h.32v1.545a.7.7 0 0 0 1.398 0v-1.545h.318a3.13 3.13 0 0 0 3.126-3.126 3.13 3.13 0 0 0-3.126-3.125" fill="#667C88"/>
            <mask id="d" fill="#fff">
                <use xlink:href="#c"/>
            </mask>
            <path d="M37.21 39.055h20.356v-4.17H37.21v4.17zm0 8.02h20.356v-4.164H37.21v4.164zm0 8.02h20.356v-4.164H37.21v4.164zm0 8.027h20.356v-4.17H37.21v4.17zM62.7 69.98a4.824 4.824 0 0 0-2.266 2.271 2.995 2.995 0 0 0-.47-.035 3.46 3.46 0 0 0-3.458 3.458V75.758c0 .645.186 1.247.5 1.765h-3.441v-9.376H41.218v9.376h-9.142V29.478H62.7v40.501z" fill="#667C88" mask="url(#d)"/>
            <path fill="#EBEFF1" mask="url(#d)" d="M37.21 63.121h20.356v-4.17H37.21zM37.21 55.095h20.356v-4.164H37.21zM37.21 47.075h20.356V42.91H37.21zM37.21 39.054h20.356v-4.17H37.21zM41.218 77.523h12.347v-9.376H41.218z"/>
            <path fill="#667C88" mask="url(#d)" d="M40.675 14.354v4.652H12.137v-4.652z"/>
            <path fill="#EBEFF1" mask="url(#d)" d="M35.065 23.187v6.292h-6.87v-6.292zM22.477 77.523h9.6v-9.376h-9.6zM28.195 61.7h3.881v-6.292h-3.881zM28.195 50.961h3.881V44.67h-3.881zM28.195 40.223h3.881V33.93h-3.881zM17.747 61.7h6.87v-6.292h-6.87zM17.747 50.961h6.87V44.67h-6.87zM17.747 40.223h6.87V33.93h-6.87zM17.747 29.478h6.87v-6.292h-6.87z"/>
            <path d="M17.747 29.479h6.87v-6.292h-6.87v6.292zm0 10.744h6.87V33.93h-6.87v6.292zm0 10.738h6.87V44.67h-6.87v6.291zm0 10.738h6.87v-6.29h-6.87v6.29zm.578 14.619a3.196 3.196 0 0 0-2.796-3.17 3.34 3.34 0 0 0-.054-.355 1.707 1.707 0 0 0-.03-.174c-.007-.02-.007-.036-.012-.055a5.428 5.428 0 0 0-.44-1.265 5.32 5.32 0 0 0-1.084-1.531V19.006h24.995v10.472h-3.838v-6.29h-6.87v6.29h3.88v4.453h-3.88v6.292h3.88v4.447h-3.88v6.291h3.88v4.447h-3.88V61.7h3.88v6.448h-9.599v9.376h-4.386c.03-.071.054-.144.077-.216.036-.102.06-.211.085-.32.018-.067.03-.133.036-.205.024-.15.036-.307.036-.464zM64.535 69.229a4.98 4.98 0 0 1 4.948 4.418 2.781 2.781 0 0 1 2.43 2.754c0 .4-.087.779-.236 1.122H56.54a3.539 3.539 0 0 1-.56-1.826v-.088a3.576 3.576 0 0 1 3.577-3.49c.168 0 .324.014.485.039.412-1.224 2.344-2.438 2.344-2.438a4.869 4.869 0 0 1 2.15-.491" fill="#B2BEC4" mask="url(#d)"/>
            <path d="M4.677 71.335a5.72 5.72 0 0 1 5.164-3.271c1.591 0 3.03.65 4.067 1.699v.005c.325.332.615.706.862 1.11.078.138.15.276.223.421a5.526 5.526 0 0 1 .44 1.265c.006.018.006.036.012.054.012.06.023.115.03.175.024.115.042.235.054.356a3.196 3.196 0 0 1 2.724 3.838c-.025.109-.049.218-.084.32-.025.072-.049.145-.078.216l-.038.085H.645A4.113 4.113 0 0 1 0 75.402a4.112 4.112 0 0 1 4.116-4.11c.187 0 .373.02.56.043" fill="#667C88" mask="url(#d)"/>
        </g>
    </g>
</svg>
