<svg width="145" height="25" viewBox="0 0 145 25" xmlns="http://www.w3.org/2000/svg" xmlns:xlink="http://www.w3.org/1999/xlink">
    <defs>
        <path id="a" d="M0 0h7v18H0z"/>
    </defs>
    <g fill="none" fill-rule="evenodd">
        <path d="M137.79 18.415c4.489 0 7.21-2.337 7.21-5.984 0-2.55-1.555-4.284-4.773-4.993l-3.145-.71c-1.203-.283-1.839-.672-1.839-1.38 0-.707.6-1.168 1.944-1.168 1.627 0 3.324.779 4.49 1.841l2.651-3.894C143.056.994 140.44.002 137.188.002c-4.207 0-7.034 2.089-7.034 5.63 0 2.585 1.449 4.462 4.525 5.17l3.146.744c1.555.353 2.05.815 2.05 1.416 0 .78-.636 1.204-2.086 1.204-1.696 0-3.746-.709-5.408-2.125l-2.652 3.895c1.238 1.133 4.067 2.479 8.06 2.479zm-16.755 0c4.49 0 7.21-2.337 7.21-5.984 0-2.55-1.554-4.284-4.772-4.993l-3.146-.71c-1.202-.283-1.838-.672-1.838-1.38 0-.707.6-1.168 1.944-1.168 1.627 0 3.323.779 4.49 1.841l2.65-3.894c-1.271-1.133-3.887-2.125-7.14-2.125-4.207 0-7.034 2.089-7.034 5.63 0 2.585 1.45 4.462 4.526 5.17l3.146.744c1.555.353 2.05.815 2.05 1.416 0 .78-.637 1.204-2.086 1.204-1.697 0-3.746-.709-5.409-2.125l-2.651 3.895c1.238 1.133 4.065 2.479 8.06 2.479zm-15.873-9.208c0-2.656-1.944-4.533-4.454-4.533-2.474 0-4.348 1.877-4.348 4.533 0 2.657 1.874 4.534 4.348 4.534 2.51-.002 4.454-1.88 4.454-4.534zm5.126-8.853v17.705h-5.303v-2.3c-1.308 1.805-3.288 2.656-5.692 2.656-4.595 0-8.307-3.753-8.307-9.208C90.986 3.753 94.698 0 99.293 0c2.404 0 4.384.85 5.692 2.656V1.594c0-.78.46-1.24 1.238-1.24h4.065zM83.352 9.207c0-2.656-1.874-4.533-4.348-4.533-2.51 0-4.454 1.877-4.454 4.533 0 2.657 1.944 4.534 4.454 4.534 2.476-.002 4.348-1.88 4.348-4.534zm5.373 0c0 5.455-3.712 9.208-8.307 9.208-2.405 0-4.313-.71-5.692-2.301v8.464h-5.303V.354h4.067c.777 0 1.238.46 1.238 1.24v1.062C76.036.851 78.015 0 80.419 0c4.596 0 8.306 3.753 8.306 9.207zm-28.313-.425c0-2.301-1.733-4.108-4.135-4.108-2.227 0-4.03 1.805-4.03 4.108 0 2.301 1.803 4.108 4.03 4.108 2.402 0 4.135-1.807 4.135-4.108zM65.537.354v15.333c0 6.657-4.312 9.313-9.615 9.313-3.534 0-6.469-.92-8.235-2.514l2.757-4.109c1.166 1.133 3.04 2.161 5.478 2.161 2.722 0 4.312-1.735 4.312-4.142v-1.133c-1.272 1.594-3.11 2.301-5.372 2.301-4.277 0-7.989-3.753-7.989-8.782 0-5.03 3.712-8.782 7.989-8.782 2.262 0 4.17.85 5.372 2.656V1.594c0-.78.46-1.24 1.238-1.24h4.065zM26.936 18.059h5.302V8.534c0-2.337 1.13-3.789 3.324-3.789 2.085 0 3.181 1.205 3.181 3.79v9.526h5.303V7.188C44.046 2.443 41.678 0 37.613 0c-2.333 0-4.1.92-5.373 2.726V1.594c0-.78-.459-1.24-1.238-1.24h-4.065v17.705h-.001zm-18.876.356c-3.995 0-6.822-1.346-8.06-2.479l2.651-3.895c1.661 1.416 3.713 2.125 5.41 2.125 1.448 0 2.084-.425 2.084-1.204 0-.601-.494-1.063-2.05-1.416l-3.145-.743C1.874 10.093.424 8.215.424 5.63.424 2.09 3.252 0 7.458 0c3.252 0 5.867.99 7.141 2.125L11.948 6.02c-1.167-1.063-2.863-1.842-4.49-1.842-1.343 0-1.944.461-1.944 1.169 0 .707.636 1.098 1.838 1.38l3.146.709c3.216.709 4.773 2.443 4.773 4.993 0 3.647-2.723 5.986-7.21 5.986z" fill="#F4333D"/>
        <g transform="translate(17)">
            <mask id="b" fill="#fff">
                <use xlink:href="#a"/>
            </mask>
            <path d="M0 18h7L5.51 7.11c-1.117.316-2.904.316-4.02 0L0 18zM3.5 6.095c1.826 0 3.241-1.331 3.241-3.048C6.741 1.331 5.326 0 3.501 0 1.676 0 .26 1.33.26 3.047.261 4.764 1.675 6.095 3.5 6.095z" fill="#000" mask="url(#b)"/>
        </g>
    </g>
</svg>
