<svg width="80" height="80" viewBox="0 0 80 80" xmlns="http://www.w3.org/2000/svg">
    <g fill="none" fill-rule="evenodd">
        <path d="M80 40c0 22.092-17.908 40-40 40S0 62.092 0 40 17.908 0 40 0s40 17.908 40 40" fill="#EBEFF1" opacity=".25"/>
        <path d="M40 60.103h28.586c2.07 0 3.363-2.049 2.328-3.687L56.621 33.775l-14.293-22.64c-1.035-1.64-3.621-1.64-4.656 0l-14.293 22.64-14.293 22.64c-1.035 1.64.258 3.688 2.328 3.688H40z" fill="#667C88"/>
        <path d="M36.13 50.657c0-2.14 1.711-3.89 3.85-3.89 2.14 0 3.89 1.75 3.89 3.89 0 2.1-1.75 3.851-3.89 3.851a3.86 3.86 0 0 1-3.85-3.851M37.063 44.516l-.506-19.024h6.886l-.505 19.024z" fill="#EBEFF1"/>
    </g>
</svg>
