<?xml version="1.0" encoding="UTF-8"?>
<svg width="18px" height="14px" viewBox="0 0 18 14" version="1.1" xmlns="http://www.w3.org/2000/svg" xmlns:xlink="http://www.w3.org/1999/xlink">
    <title>Icons/System icons/Icon Type/Delete</title>
    <defs>
        <path d="M6.73799127,17 C6.86899543,17 6.97379913,16.9602273 7.05240175,16.8806818 L7.05240175,16.8806818 L18.8427948,4.94886364 C18.9475985,4.84280283 19,4.72348465 19,4.59090909 C19,4.45833354 18.9475985,4.35227273 18.8427948,4.27272727 L18.8427948,4.27272727 L17.7423581,3.11931818 C17.6375544,3.03977273 17.5196505,3 17.3886463,3 C17.2576421,3 17.1528384,3.03977273 17.0742358,3.11931818 L17.0742358,3.11931818 L6.73799127,13.6193182 L2.92576419,9.76136364 C2.84716157,9.65530283 2.74235788,9.60227273 2.61135371,9.60227273 C2.48034954,9.60227273 2.36244561,9.65530283 2.25764192,9.76136364 L2.25764192,9.76136364 L1.15720524,10.875 C1.05240155,10.9810608 1,11.100379 1,11.2329545 C1,11.3655301 1.05240155,11.4715909 1.15720524,11.5511364 L1.15720524,11.5511364 L6.38427948,16.8806818 C6.48908317,16.9602273 6.6069871,17 6.73799127,17 Z" id="path-1"></path>
    </defs>
    <g id="Default" stroke="none" stroke-width="1" fill="none" fill-rule="evenodd">
        <g id="02b-Required-Documents-State" transform="translate(-1254.000000, -1327.000000)">
            <g id="Form/File-upload/Desktop/Multiple,-success" transform="translate(431.000000, 1263.000000)">
                <g id="Group" transform="translate(30.000000, 30.000000)">
                    <g id="files" transform="translate(792.000000, 0.000000)">
                        <g id="file-success" transform="translate(0.000000, 29.000000)">
                            <g id="Icons/System-icons/Icon-Type/Delete" transform="translate(0.000000, 2.000000)">
                                <mask id="mask-2" fill="white">
                                    <use xlink:href="#path-1"></use>
                                </mask>
                                <g id="Icon" fill-rule="nonzero"></g>
                                <rect id="-Icon-Colour" fill="#319988" fill-rule="nonzero" mask="url(#mask-2)" x="0" y="0" width="20" height="20"></rect>
                            </g>
                        </g>
                    </g>
                </g>
            </g>
        </g>
    </g>
</svg>