<svg xmlns="http://www.w3.org/2000/svg" width="20" height="20" viewBox="0 0 20 20">
    <g fill="none" fill-rule="evenodd">
        <g>
            <g>
                <g>
                    <g>
                        <g>
                            <g>
                                <g>
                                    <path d="M0 20L20 20 20 0 0 0z" transform="translate(-155 -1046) translate(90 375) translate(0 69) translate(40 462) translate(0 127) translate(25 10) translate(0 3)"/>
                                    <path fill="#B2BEC4" d="M20 10c0 5.523-4.477 10-10 10S0 15.523 0 10 4.477 0 10 0s10 4.477 10 10" opacity=".25" transform="translate(-155 -1046) translate(90 375) translate(0 69) translate(40 462) translate(0 127) translate(25 10) translate(0 3)"/>
                                    <path fill="#B2BEC4" d="M18.553 17.596c0 .376-.307.684-.684.684H2.463c-.377 0-.684-.308-.684-.684V9.183c0-.376.307-.684.684-.684h15.406c.377 0 .684.308.684.684v8.413zM17.869 5.222c-.078-1.424-2.146-3.144-2.146-3.144s-2.385 2.918-5.183 3.386l.09.445s7.316.738 7.239-.687" transform="translate(-155 -1046) translate(90 375) translate(0 69) translate(40 462) translate(0 127) translate(25 10) translate(0 3)"/>
                                    <path fill="#495A63" d="M10.479 5.143s2.89-4.078 5.244-3.065c.507 1.96-5.183 3.533-5.183 3.533l-.061-.468z" transform="translate(-155 -1046) translate(90 375) translate(0 69) translate(40 462) translate(0 127) translate(25 10) translate(0 3)"/>
                                    <path fill="#B2BEC4" d="M2.709 5.222c.077-1.424 2.146-3.144 2.146-3.144s2.384 2.918 5.183 3.386l-.091.445s-7.315.738-7.238-.687" transform="translate(-155 -1046) translate(90 375) translate(0 69) translate(40 462) translate(0 127) translate(25 10) translate(0 3)"/>
                                    <path fill="#495A63" d="M10.098 5.143s-2.89-4.078-5.243-3.065c-.508 1.96 5.168 3.474 5.168 3.474l.075-.409z" transform="translate(-155 -1046) translate(90 375) translate(0 69) translate(40 462) translate(0 127) translate(25 10) translate(0 3)"/>
                                    <path fill="#667C88" d="M12.482 7c0 1.279-1.037 2.316-2.316 2.316C8.886 9.316 7.85 8.279 7.85 7c0-1.28 1.037-2.316 2.316-2.316 1.28 0 2.316 1.037 2.316 2.316" transform="translate(-155 -1046) translate(90 375) translate(0 69) translate(40 462) translate(0 127) translate(25 10) translate(0 3)"/>
                                    <path fill="#667C88" d="M18.988 9.174c0 .376-.308.684-.685.684H2.03c-.376 0-.684-.308-.684-.684v-2.56c0-.377.308-.685.684-.685h16.274c.377 0 .685.308.685.684v2.561z" transform="translate(-155 -1046) translate(90 375) translate(0 69) translate(40 462) translate(0 127) translate(25 10) translate(0 3)"/>
                                    <path fill="#495A63" d="M8.727 18.28L11.605 18.28 11.605 5.929 8.727 5.929z" transform="translate(-155 -1046) translate(90 375) translate(0 69) translate(40 462) translate(0 127) translate(25 10) translate(0 3)"/>
                                </g>
                            </g>
                        </g>
                    </g>
                </g>
            </g>
        </g>
    </g>
</svg>
