<svg width="16" height="16" viewBox="0 0 16 16" xmlns="http://www.w3.org/2000/svg" xmlns:xlink="http://www.w3.org/1999/xlink">
    <defs>
        <path d="m9.7 8 6.2 6.2c.067.067.1.158.1.275a.372.372 0 0 1-.1.275l-1.15 1.15a.372.372 0 0 1-.275.1.372.372 0 0 1-.275-.1L8 9.7l-6.2 6.2a.372.372 0 0 1-.275.1.372.372 0 0 1-.275-.1L.1 14.75a.372.372 0 0 1-.1-.275c0-.117.033-.208.1-.275L6.3 8 .1 1.8a.372.372 0 0 1-.1-.275c0-.117.033-.208.1-.275L1.25.1a.372.372 0 0 1 .275-.1c.117 0 .208.033.275.1L8 6.3 14.2.1a.372.372 0 0 1 .275-.1c.117 0 .208.033.275.1l1.15 1.15c.067.067.1.158.1.275a.372.372 0 0 1-.1.275L9.7 8z" id="a"/>
    </defs>
    <use fill="#D9D9D9" fill-rule="nonzero" xlink:href="#a"/>
</svg>
