<svg xmlns="http://www.w3.org/2000/svg" xmlns:xlink="http://www.w3.org/1999/xlink" width="80" height="80" viewBox="0 0 80 80">
    <defs>
        <path id="7er39as95a" d="M0 0L80 0 80 80 0 80z"/>
    </defs>
    <g fill="none" fill-rule="evenodd">
        <g>
            <g>
                <g transform="translate(-240 -395) translate(90 355) translate(150 40)">
                    <g>
                        <mask id="ccxl9qi4db" fill="#fff">
                            <use xlink:href="#7er39as95a"/>
                        </mask>
                        <path fill="#EBEFF1" d="M80 40c0 22.092-17.908 40-40 40S0 62.092 0 40C0 17.909 17.908 0 40 0s40 17.909 40 40" mask="url(#ccxl9qi4db)"/>
                    </g>
                    <path d="M0 0H80V80H0z"/>
                    <circle cx="40" cy="40" r="35" fill="#D1D8DB" opacity=".2"/>
                    <g>
                        <path fill="#EBEFF1" d="M65.864 34.162c0 18.018-14.605 32.623-32.623 32.623C15.225 66.785.62 52.18.62 34.162c0-18.018 14.606-32.623 32.622-32.623 18.018 0 32.623 14.605 32.623 32.623" transform="translate(6 5)"/>
                        <path fill="#B2BEC4" d="M33.241 53.594c.715 0 1.295.58 1.295 1.296v2.591c0 .715-.58 1.295-1.295 1.295s-1.296-.58-1.296-1.295V54.89c0-.716.58-1.296 1.296-1.296" transform="translate(6 5)"/>
                        <path fill="#667C88" d="M22.256 51.96c.22 0 .442.055.647.172.62.357.833 1.15.478 1.768l-.646 1.124c-.357.62-1.15.834-1.77.477-.62-.357-.834-1.149-.476-1.769l.644-1.122c.24-.417.675-.65 1.123-.65" transform="translate(6 5)"/>
                        <path fill="#B2BEC4" d="M14.177 43.914c.448-.001.884.23 1.125.645.359.62.148 1.412-.47 1.77l-1.122.65c-.619.36-1.412.148-1.77-.47-.358-.619-.148-1.412.47-1.77l1.122-.65c.203-.118.426-.175.645-.175M33.241 14.73c.715 0 1.295-.58 1.295-1.296v-2.59c0-.716-.58-1.296-1.295-1.296s-1.296.58-1.296 1.295v2.591c0 .716.58 1.296 1.296 1.296" transform="translate(6 5)"/>
                        <path fill="#667C88" d="M9.923 35.458h2.59c.716 0 1.297-.58 1.297-1.296 0-.716-.58-1.295-1.296-1.295H9.923c-.716 0-1.295.58-1.295 1.295s.579 1.296 1.295 1.296M22.256 16.365c.22 0 .442-.055.647-.172.62-.358.833-1.15.478-1.769l-.646-1.124c-.357-.62-1.15-.834-1.77-.477-.62.357-.834 1.149-.476 1.769l.644 1.123c.24.416.675.649 1.123.65" transform="translate(6 5)"/>
                        <path fill="#B2BEC4" d="M14.177 24.41c.448.001.884-.23 1.125-.645.359-.62.148-1.412-.47-1.77l-1.122-.65c-.619-.36-1.412-.148-1.77.47-.358.619-.148 1.412.47 1.77l1.122.65c.203.118.426.175.645.175" transform="translate(6 5)"/>
                        <path fill="#667C88" d="M44.227 53.352c-.22 0-.443.055-.647.172-.62.357-.834 1.148-.478 1.768l.646 1.124c.356.62 1.148.835 1.768.477.62-.356.834-1.148.478-1.768l-.646-1.123c-.24-.416-.675-.65-1.121-.65" transform="translate(6 5)"/>
                        <path fill="#B2BEC4" d="M52.305 45.306c-.448 0-.884.23-1.125.646-.358.62-.148 1.411.47 1.77l1.122.65c.62.359 1.412.148 1.77-.47.36-.62.148-1.413-.47-1.771l-1.122-.65c-.203-.118-.426-.175-.645-.175" transform="translate(6 5)"/>
                        <path fill="#667C88" d="M56.56 35.469h-2.59c-.717 0-1.297-.58-1.297-1.295 0-.716.58-1.296 1.296-1.296h2.591c.715 0 1.295.58 1.295 1.296 0 .715-.58 1.295-1.295 1.295M44.227 16.376c-.22 0-.443-.055-.647-.172-.62-.357-.834-1.149-.478-1.769l.646-1.123c.356-.62 1.148-.834 1.768-.477.62.356.834 1.148.478 1.768l-.646 1.123c-.24.416-.675.65-1.121.65" transform="translate(6 5)"/>
                        <path fill="#B2BEC4" d="M52.305 24.422c-.448.001-.884-.23-1.125-.645-.358-.62-.148-1.412.47-1.772l1.122-.649c.62-.36 1.412-.148 1.77.47.36.62.148 1.413-.47 1.77l-1.122.651c-.203.118-.426.175-.645.175" transform="translate(6 5)"/>
                        <path stroke="#667C88" stroke-linecap="round" stroke-width="4" d="M3.263 48.542C1.171 44.19 0 39.312 0 34.162 0 15.804 14.882.921 33.242.921c18.357 0 33.24 14.883 33.24 33.241 0 18.359-14.883 33.241-33.24 33.241-5.739 0-11.135-1.453-15.845-4.012" transform="translate(6 5)"/>
                        <path stroke="#667C88" stroke-linecap="round" stroke-width="4" d="M33.241 21.093L33.241 34.162 29.072 40.788M23.58 61.862L15.468 62.358 19.953 69.135" transform="translate(6 5)"/>
                    </g>
                </g>
            </g>
        </g>
    </g>
</svg>
