<?xml version="1.0" encoding="UTF-8"?>
<svg width="18px" height="20px" viewBox="0 0 18 20" version="1.1" xmlns="http://www.w3.org/2000/svg" xmlns:xlink="http://www.w3.org/1999/xlink">
    <title>Icons/System icons/Icon Type/Delete</title>
    <defs>
        <path d="M10.5,17 C11.3284271,17 12,17.6715729 12,18.5 C12,19.3284271 11.3284271,20 10.5,20 C9.67157288,20 9,19.3284271 9,18.5 C9,17.6715729 9.67157288,17 10.5,17 Z M5,14 C6.1045695,14 7,14.8954305 7,16 C7,17.1045695 6.1045695,18 5,18 C3.8954305,18 3,17.1045695 3,16 C3,14.8954305 3.8954305,14 5,14 Z M16,15 C16.5522847,15 17,15.4477153 17,16 C17,16.5522847 16.5522847,17 16,17 C15.4477153,17 15,16.5522847 15,16 C15,15.4477153 15.4477153,15 16,15 Z M2.5,9 C3.32842712,9 4,9.67157288 4,10.5 C4,11.3284271 3.32842712,12 2.5,12 C1.67157288,12 1,11.3284271 1,10.5 C1,9.67157288 1.67157288,9 2.5,9 Z M18,9 C18.5522847,9 19,9.44771525 19,10 C19,10.5522847 18.5522847,11 18,11 C17.4477153,11 17,10.5522847 17,10 C17,9.44771525 17.4477153,9 18,9 Z M5,3 C6.1045695,3 7,3.8954305 7,5 C7,6.1045695 6.1045695,7 5,7 C3.8954305,7 3,6.1045695 3,5 C3,3.8954305 3.8954305,3 5,3 Z M16,4 C16.5522847,4 17,4.44771525 17,5 C17,5.55228475 16.5522847,6 16,6 C15.4477153,6 15,5.55228475 15,5 C15,4.44771525 15.4477153,4 16,4 Z M10.5,0 C11.8807119,0 13,1.11928813 13,2.5 C13,3.88071187 11.8807119,5 10.5,5 C9.11928813,5 8,3.88071187 8,2.5 C8,1.11928813 9.11928813,0 10.5,0 Z" id="path-1"></path>
    </defs>
    <g id="Default" stroke="none" stroke-width="1" fill="none" fill-rule="evenodd">
        <g id="02b-Required-Documents-State" transform="translate(-1254.000000, -1295.000000)">
            <g id="Form/File-upload/Desktop/Multiple,-success" transform="translate(431.000000, 1263.000000)">
                <g id="Group" transform="translate(30.000000, 30.000000)">
                    <g id="files" transform="translate(792.000000, 0.000000)">
                        <g id="Icons/System-icons/Icon-Type/Delete" transform="translate(0.000000, 2.000000)">
                            <mask id="mask-2" fill="white">
                                <use xlink:href="#path-1"></use>
                            </mask>
                            <g id="Icon" fill-rule="nonzero"></g>
                            <rect id="-Icon-Colour" fill="#319988" fill-rule="nonzero" mask="url(#mask-2)" x="0" y="0" width="20" height="20"></rect>
                        </g>
                    </g>
                </g>
            </g>
        </g>
    </g>
</svg>