<svg xmlns="http://www.w3.org/2000/svg" xmlns:xlink="http://www.w3.org/1999/xlink" width="14" height="14" viewBox="0 0 14 14">
    <defs>
        <path id="hfswtx8g6a" d="M12.622 2.625c.091 0 .168-.032.232-.096s.096-.141.096-.232V1.53c0-.182-.064-.337-.191-.465-.128-.127-.283-.191-.465-.191H9.23l-.246-.52C8.93.246 8.848.16 8.74.095 8.63.033 8.511 0 8.384 0H5.266c-.127 0-.246.032-.355.096-.11.064-.191.15-.246.26l-.246.519H1.356c-.182 0-.337.064-.465.191C.764 1.194.7 1.35.7 1.531v.766c0 .091.032.168.096.232s.141.096.232.096h11.594zM10.762 14c.365 0 .675-.128.93-.383s.383-.565.383-.93V3.829c0-.091-.032-.168-.096-.232s-.141-.096-.232-.096H1.903c-.091 0-.168.032-.232.096s-.096.141-.096.232v8.86c0 .364.128.674.383.93.255.254.565.382.93.382h7.874zM4.2 12.25c-.128 0-.232-.041-.314-.123-.082-.082-.123-.187-.123-.315V5.689c0-.128.04-.233.123-.315.082-.082.186-.123.314-.123s.232.041.314.123c.082.082.123.187.123.314v6.125c0 .128-.04.233-.123.315-.082.082-.186.123-.314.123zm2.625 0c-.128 0-.232-.041-.314-.123-.082-.082-.123-.187-.123-.315V5.689c0-.128.04-.233.123-.315.082-.082.186-.123.314-.123s.232.041.314.123c.082.082.123.187.123.314v6.125c0 .128-.04.233-.123.315-.082.082-.186.123-.314.123zm2.625 0c-.128 0-.232-.041-.314-.123-.082-.082-.123-.187-.123-.315V5.689c0-.128.04-.233.123-.315.082-.082.186-.123.314-.123s.232.041.314.123c.082.082.123.187.123.314v6.125c0 .128-.04.233-.123.315-.082.082-.186.123-.314.123z"/>
    </defs>
    <g fill="none" fill-rule="evenodd">
        <g>
            <g transform="translate(-176 -1195) translate(176 1195)">
                <mask id="y47lu66ywb" fill="#fff">
                    <use xlink:href="#hfswtx8g6a"/>
                </mask>
                <path fill="#484848" fill-rule="nonzero" d="M0 0H14V14H0z" mask="url(#y47lu66ywb)"/>
            </g>
        </g>
    </g>
</svg>
