<svg xmlns="http://www.w3.org/2000/svg" xmlns:xlink="http://www.w3.org/1999/xlink" width="20" height="20" viewBox="0 0 20 20">
    <defs>
        <path id="kcxud5s6ha" d="M15.95 18c.233 0 .417-.083.55-.25l1.25-1.25c.167-.133.25-.317.25-.55 0-.233-.083-.417-.25-.55L12.4 10l5.35-5.4c.167-.133.25-.317.25-.55 0-.233-.083-.417-.25-.55L16.5 2.25c-.133-.167-.317-.25-.55-.25-.233 0-.417.083-.55.25L10 7.6 4.6 2.25C4.467 2.083 4.283 2 4.05 2c-.233 0-.417.083-.55.25L2.25 3.5c-.167.133-.25.317-.25.55 0 .233.083.417.25.55L7.6 10l-5.35 5.4c-.167.133-.25.317-.25.55 0 .233.083.417.25.55l1.25 1.25c.133.167.317.25.55.25.233 0 .417-.083.55-.25L10 12.4l5.4 5.35c.133.167.317.25.55.25z"/>
    </defs>
    <g fill="none" fill-rule="evenodd">
        <g>
            <g>
                <g transform="translate(-1110 -333) translate(450 303) translate(660 30)">
                    <mask id="70abxufpmb" fill="#fff">
                        <use xlink:href="#kcxud5s6ha"/>
                    </mask>
                    <path fill="#D9D9D9" fill-rule="nonzero" d="M0 0H20V20H0z" mask="url(#70abxufpmb)"/>
                </g>
            </g>
        </g>
    </g>
</svg>
