<svg xmlns="http://www.w3.org/2000/svg" xmlns:xlink="http://www.w3.org/1999/xlink" width="14" height="14" viewBox="0 0 14 14">
    <defs>
        <path id="i1caxwq1va" d="M12.354 5.144l1.26-1.26c.515-.514.515-1.346 0-1.857L11.971.383c-.514-.51-1.345-.51-1.857 0l-1.26 1.261c-.129.129-.129.336 0 .465l3.035 3.035c.128.129.336.129.465 0zM.77 13.99l3.323-.582 7.18-7.18c.13-.13.13-.337 0-.466L8.239 2.727c-.13-.129-.339-.129-.467 0L.59 9.907.01 13.23c-.079.449.312.837.76.76zm1.185-1.096l-.85-.85.308-1.764h.993v1.312h1.312v.993l-1.763.309z"/>
    </defs>
    <g fill="none" fill-rule="evenodd">
        <g>
            <g>
                <g>
                    <g>
                        <g transform="translate(-1427 -1427) translate(450 1392) translate(30 28) translate(947 2) translate(0 5)">
                            <mask id="ha3hyyg9bb" fill="#fff">
                                <use xlink:href="#i1caxwq1va"/>
                            </mask>
                            <use fill="#484848" fill-rule="nonzero" xlink:href="#i1caxwq1va"/>
                            <path fill="#4e78c0" fill-rule="nonzero" d="M0 0H14V14H0z" mask="url(#ha3hyyg9bb)"/>
                        </g>
                    </g>
                </g>
            </g>
        </g>
    </g>
</svg>
