<svg xmlns="http://www.w3.org/2000/svg" width="20" height="20" viewBox="0 0 20 20">
    <g fill="none" fill-rule="evenodd">
        <g fill="#2979FF" fill-rule="nonzero">
            <g>
                <g>
                    <g>
                        <g>
                            <g>
                                <path d="M2.954 18.226l.238-.229c.212-.203.206-.535-.012-.732l-.763-.688h4.02c1.95 0 3.537-1.523 3.537-3.396 0-.55-.137-1.07-.38-1.53-.162-.307-.592-.37-.846-.126l-.27.258c-.154.149-.193.374-.104.566.12.254.185.535.185.832 0 1.123-.951 2.038-2.121 2.038h-4.02l.762-.688c.218-.197.224-.529.012-.732l-.238-.229c-.207-.199-.543-.199-.75 0L.155 15.538c-.207.199-.207.521 0 .72l2.049 1.968c.207.199.543.199.75 0z" transform="translate(-277 -847) translate(90 375) translate(0 69) translate(88 200) translate(99.738 200) translate(0 3.625) matrix(-1 0 0 1 9.974 0)"/>
                                <path d="M17.703 12c.689 0 1.247-.576 1.247-1.286V1.286C18.95.576 18.392 0 17.703 0H5.236C4.548 0 3.99.576 3.99 1.286v9.428c0 .71.558 1.286 1.246 1.286h12.467zm.416-9.429H4.821V1.286c0-.236.187-.429.415-.429h12.467c.229 0 .416.193.416.429V2.57zm-.416 8.572H5.236c-.228 0-.415-.193-.415-.429V5.143h13.298v5.571c0 .236-.187.429-.416.429zM8.665 9.429c.171 0 .311-.145.311-.322v-.214c0-.177-.14-.322-.311-.322h-1.87c-.172 0-.312.145-.312.322v.214c0 .177.14.322.312.322h1.87zm4.987 0c.171 0 .311-.145.311-.322v-.214c0-.177-.14-.322-.311-.322h-3.533c-.171 0-.311.145-.311.322v.214c0 .177.14.322.311.322h3.533z" transform="translate(-277 -847) translate(90 375) translate(0 69) translate(88 200) translate(99.738 200) translate(0 3.625)"/>
                            </g>
                        </g>
                    </g>
                </g>
            </g>
        </g>
    </g>
</svg>
