<?xml version="1.0" encoding="UTF-8"?>
<svg width="18px" height="18px" viewBox="0 0 18 18" version="1.1" xmlns="http://www.w3.org/2000/svg" xmlns:xlink="http://www.w3.org/1999/xlink">
    <title>4C9A00E1-4AEA-4FE8-B393-85F5D1EA6A2B</title>
    <defs>
        <path d="M9,0 C10.6209679,0 12.1209677,0.40524212 13.5,1.21572581 C14.8790323,2.02620949 15.9737905,3.12096774 16.7842742,4.5 C17.5947579,5.87903226 18,7.37903207 18,9 C18,10.6209679 17.5947579,12.1209677 16.7842742,13.5 C15.9737905,14.8790323 14.8790323,15.9737905 13.5,16.7842742 C12.1209677,17.5947579 10.6209679,18 9,18 C7.37903207,18 5.87903226,17.5947579 4.5,16.7842742 C3.12096774,15.9737905 2.02620949,14.8790323 1.21572581,13.5 C0.40524212,12.1209677 0,10.6209679 0,9 C0,7.37903207 0.40524212,5.87903226 1.21572581,4.5 C2.02620949,3.12096774 3.12096774,2.02620949 4.5,1.21572581 C5.87903226,0.40524212 7.37903207,0 9,0 Z M9.72580645,7.83870968 L7.40322581,7.83870968 C7.28225825,7.83870968 7.1794353,7.88104857 7.09475806,7.96572581 C7.03125014,8.02923373 6.99155753,8.10294862 6.97568047,8.18687001 L6.96774194,8.27419355 L6.96774194,9.14516129 C6.96774194,9.26612885 7.01008083,9.3689518 7.09475806,9.45362903 C7.15826599,9.51713696 7.23198088,9.55682957 7.31590227,9.57270663 L7.40322581,9.58064516 L7.83870968,9.58064516 L7.83870968,11.9032258 L7.40322581,11.9032258 C7.28225825,11.9032258 7.1794353,11.9455647 7.09475806,12.0302419 C7.03125014,12.0937499 6.99155753,12.1674648 6.97568047,12.2513861 L6.96774194,12.3387097 L6.96774194,13.2096774 C6.96774194,13.330645 7.01008083,13.4334679 7.09475806,13.5181452 C7.15826599,13.5816531 7.23198088,13.6213457 7.31590227,13.6372228 L7.40322581,13.6451613 L10.5967742,13.6451613 C10.7177418,13.6451613 10.8205647,13.6028224 10.9052419,13.5181452 C10.9687499,13.4546372 11.0084425,13.3809223 11.0243195,13.297001 L11.0322581,13.2096774 L11.0322581,12.3387097 C11.0322581,12.2177421 10.9899192,12.1149192 10.9052419,12.0302419 C10.841734,11.966734 10.7680191,11.9270414 10.6840977,11.9111643 L10.5967742,11.9032258 L10.1612903,11.9032258 L10.1612903,8.27419355 C10.1612903,8.15322599 10.1189514,8.05040304 10.0342742,7.96572581 C9.97076627,7.90221788 9.89705138,7.86252527 9.81312999,7.84664821 L9.72580645,7.83870968 Z M9,3.99193548 C8.58870986,3.99193548 8.23185465,4.14314535 7.92943548,4.44556452 C7.62701631,4.74798369 7.47580645,5.10483889 7.47580645,5.51612903 C7.47580645,5.92741917 7.62701631,6.28427438 7.92943548,6.58669355 C8.23185465,6.88911272 8.58870986,7.04032258 9,7.04032258 C9.41129014,7.04032258 9.76814535,6.88911272 10.0705645,6.58669355 C10.3729837,6.28427438 10.5241935,5.92741917 10.5241935,5.51612903 C10.5241935,5.10483889 10.3729837,4.74798369 10.0705645,4.44556452 C9.76814535,4.14314535 9.41129014,3.99193548 9,3.99193548 Z" id="path-1"></path>
    </defs>
    <g id="MyInfo-(desktop)" stroke="none" stroke-width="1" fill="none" fill-rule="evenodd">
        <g id="2-07e-Receive-fund-states" transform="translate(-883.000000, -431.000000)">
            <g id="receive-copy" transform="translate(450.000000, 397.000000)">
                <g id="header" transform="translate(30.000000, 30.000000)">
                    <g id="Icons/1---Utility/Info-Circle" transform="translate(403.000000, 4.000000)">
                        <mask id="mask-2" fill="white">
                            <use xlink:href="#path-1"></use>
                        </mask>
                        <g id="Icon" fill-rule="nonzero"></g>
                        <rect id="-Icon-Colour" fill="#484848" fill-rule="nonzero" mask="url(#mask-2)" x="0" y="0" width="18" height="18"></rect>
                    </g>
                </g>
            </g>
        </g>
    </g>
</svg>